<svg width="120" height="40" viewBox="0 0 120 40" fill="none" xmlns="http://www.w3.org/2000/svg">
  <circle cx="20" cy="20" r="15" fill="#000000"/>
  <path d="M15 12C15 8.68629 17.6863 6 21 6C22.5 6 23.8 6.6 24.7 7.5C25.1 7.9 25.1 8.5 24.7 8.9C24.3 9.3 23.7 9.3 23.3 8.9C22.7 8.3 21.9 8 21 8C19.3 8 18 9.3 18 11C18 12.7 19.3 14 21 14C22.1 14 23 13.5 23.6 12.8C24 12.4 24.6 12.4 25 12.8C25.4 13.2 25.4 13.8 25 14.2C24.1 15.3 22.6 16 21 16C17.7 16 15 13.3 15 10Z" fill="#FFFFFF"/>
  <text x="40" y="25" font-family="Arial, sans-serif" font-size="16" font-weight="bold" fill="#000000">Apple</text>
</svg>
