<svg width="120" height="40" viewBox="0 0 120 40" fill="none" xmlns="http://www.w3.org/2000/svg">
  <circle cx="20" cy="20" r="15" fill="#4285F4"/>
  <path d="M10 20C10 14.4772 14.4772 10 20 10C22.5 10 24.8 10.8 26.6 12.2L24.2 14.6C22.9 13.6 21.5 13 20 13C16.7 13 14 15.7 14 19C14 22.3 16.7 25 20 25C22.1 25 23.9 24.1 25.1 22.7L27.5 25.1C25.4 27.4 22.8 28.5 20 28.5C14.5 28.5 10 24 10 20Z" fill="#FFFFFF"/>
  <text x="40" y="25" font-family="Arial, sans-serif" font-size="16" font-weight="bold" fill="#4285F4">Google</text>
</svg>
